<svg width="34" height="30" viewBox="0 0 34 30" fill="none" xmlns="http://www.w3.org/2000/svg">
<path d="M4.2337 18.8396C3.14036 18.8396 2.21675 18.4607 1.46286 17.7029C0.708976 16.9451 0.332031 16.0235 0.332031 14.9379C0.332031 13.8524 0.71092 12.9307 1.4687 12.1729C2.22648 11.4151 3.14814 11.0363 4.2337 11.0363V6.50875C4.2337 5.8057 4.49245 5.19542 5.00995 4.67792C5.52745 4.16042 6.13773 3.90167 6.84078 3.90167H13.097C13.097 2.80833 13.4759 1.88472 14.2337 1.13083C14.9915 0.376945 15.9131 0 16.9987 0C18.0843 0 19.0059 0.37889 19.7637 1.13667C20.5215 1.89445 20.9004 2.81611 20.9004 3.90167H27.1566C27.8597 3.90167 28.4699 4.16042 28.9874 4.67792C29.505 5.19542 29.7637 5.8057 29.7637 6.50875V11.0363C30.857 11.0363 31.7806 11.4151 32.5345 12.1729C33.2884 12.9307 33.6654 13.8524 33.6654 14.9379C33.6654 16.0235 33.2865 16.9451 32.5287 17.7029C31.7709 18.4607 30.8493 18.8396 29.7637 18.8396V26.5596C29.7637 27.2626 29.505 27.8729 28.9874 28.3904C28.4699 28.9079 27.8597 29.1667 27.1566 29.1667H6.84078C6.13773 29.1667 5.52745 28.9079 5.00995 28.3904C4.49245 27.8729 4.2337 27.2626 4.2337 26.5596V18.8396ZM11.6608 15.5171C12.1283 15.5171 12.5237 15.3535 12.847 15.0263C13.1704 14.6988 13.332 14.3013 13.332 13.8338C13.332 13.3663 13.1684 12.9708 12.8412 12.6475C12.5137 12.3242 12.1162 12.1625 11.6487 12.1625C11.1812 12.1625 10.7858 12.3261 10.4624 12.6533C10.1391 12.9806 9.97745 13.3781 9.97745 13.8458C9.97745 14.3133 10.1411 14.7087 10.4683 15.0321C10.7955 15.3554 11.193 15.5171 11.6608 15.5171ZM22.3487 15.5171C22.8162 15.5171 23.2116 15.3535 23.535 15.0263C23.8583 14.6988 24.02 14.3013 24.02 13.8338C24.02 13.3663 23.8563 12.9708 23.5291 12.6475C23.2019 12.3242 22.8044 12.1625 22.3366 12.1625C21.8691 12.1625 21.4737 12.3261 21.1504 12.6533C20.827 12.9806 20.6654 13.3781 20.6654 13.8458C20.6654 14.3133 20.829 14.7087 21.1562 15.0321C21.4837 15.3554 21.8812 15.5171 22.3487 15.5171ZM10.5908 22.81H23.4066V20.7158H10.5908V22.81ZM6.84078 27.0725H27.1566C27.2991 27.0725 27.4202 27.0244 27.52 26.9283C27.6197 26.8322 27.6695 26.7093 27.6695 26.5596V6.50875C27.6695 6.36625 27.6197 6.24514 27.52 6.14542C27.4202 6.04569 27.2991 5.99583 27.1566 5.99583H6.84078C6.69828 5.99583 6.57717 6.04569 6.47745 6.14542C6.37773 6.24514 6.32787 6.36625 6.32787 6.50875V26.5596C6.32787 26.7093 6.37773 26.8322 6.47745 26.9283C6.57717 27.0244 6.69828 27.0725 6.84078 27.0725Z" fill="#000713"/>
</svg>
