<svg width="12" height="18" viewBox="0 0 12 18" fill="none" xmlns="http://www.w3.org/2000/svg">
<path d="M7.82425 17.5L1.37175 10.7988V9.314H4.5C5.48333 9.314 6.35983 8.99983 7.1295 8.3715C7.89917 7.743 8.31842 6.86058 8.38725 5.72425H0.25V4.468H8.268C8.05467 3.68033 7.60058 3.0315 6.90575 2.5215C6.21092 2.0115 5.409 1.7565 4.5 1.7565H0.25V0.5H11.75V1.7565H7.86275C8.29225 2.06033 8.65958 2.46083 8.96475 2.958C9.26992 3.45517 9.47483 3.9585 9.5795 4.468H11.75V5.72425H9.64225C9.57308 7.19058 9.03892 8.36483 8.03975 9.247C7.04058 10.1293 5.86067 10.5705 4.5 10.5705H2.90775L9.562 17.5H7.82425Z" fill="#5F6368"/>
</svg>
